<svg xmlns="http://www.w3.org/2000/svg" id="Camada_2" data-name="Camada 2" viewBox="0 0 80 48"><defs><style>      .cls-1 {        fill: #fff;        fill-rule: evenodd;      }    </style></defs><g id="Camada_1-2" data-name="Camada 1"><rect width="80" height="48"></rect><path class="cls-1" d="M53.04,40.74c-.06-.13-.15-.27-.25-.37-.1-.09-.22-.18-.35-.22-.13-.05-.26-.08-.4-.08v-.15h-.47v-.03h.53v-1.04c0-.09-.01-.18-.03-.25-.01-.09-.03-.15-.06-.21-.03-.06-.06-.12-.1-.16-.03-.04-.07-.09-.12-.12-.07-.06-.15-.1-.22-.13-.03-.01-.07-.01-.09-.03h-.04s-.01-.01-.01-.01c-2.98-.78-6.44-1.23-9.95-1.33v-4.14h-.34v-3.1h.23c.06,0,.12,0,.18-.01.06-.01.1-.03.13-.04.04-.01.09-.04.12-.06.03-.03.06-.06.07-.09.04-.04.07-.1.09-.16,0-.03.01-.04.01-.07v-.34c.95-.08,2.07-.2,3.11-.32.85-.1,1.64-.21,2.24-.28.15-.03.29-.04.41-.06.12-.03.23-.04.32-.06.04-.01.09-.01.12-.03.04,0,.07-.01.1-.01.01,0,.03,0,.03-.01h.03s.03-.01.03-.01h.03s.09-.09.12-.12c.03-.04.06-.09.07-.13.01-.07.01-.16.03-.24,0-.02,0-.04,0-.07h.23c.09,0,.18-.01.25-.01.07-.01.15-.03.21-.06.06-.01.12-.04.16-.07.04-.03.09-.06.13-.1.03-.03.06-.07.09-.12.01-.04.04-.09.06-.13.03-.09.04-.19.04-.3l.03-.87s.02,0,.03,0c.01,0,.03-.01.04-.03.01,0,.03-.01.04-.03,0-.01.01-.03.03-.04.01-.06.03-.13.04-.21h0s.01-.06.01-.09.01-.07.01-.12c.01-.09.01-.19.03-.33.04-.55.1-1.13.14-1.7,0,0,0,0,0,0h.15s.04,0,.06-.01c.01,0,.03-.01.03-.03.01-.01.03-.01.03-.03.01-.01.01-.03.03-.04.01-.04.01-.1.01-.13h0s.01-.67.01-.86v-.06s-.01-.03-.01-.04t-.03-.03s-.01-.01-.01-.03c-.03-.01-.04-.03-.07-.03-.01,0-.04-.01-.06-.01,0,0,0,0-.01,0,.07-.79.12-1.59.17-2.35h.34c.1-.01.19-.04.26-.09.09-.04.15-.09.21-.15.06-.06.1-.13.13-.21.03-.06.04-.13.04-.21,0-.06-.01-.1-.04-.16,0-.01-.01-.04-.03-.07-.03-.01-.04-.04-.06-.06-.04-.04-.1-.07-.18-.09-.06-.03-.15-.03-.23-.03-.07,0-.15,0-.23.01-.32.06-.62.09-.92.09s-.57-.03-.89-.07c-.09-.01-.18-.01-.25-.01-.09,0-.18,0-.25.03-.07.01-.13.04-.18.07-.01.03-.04.04-.06.06-.01.03-.03.04-.04.07-.01.03-.01.04-.01.07-.01.03-.01.06-.01.09s0,.06.01.1c0,.03.01.07.03.1.04.07.09.13.15.19.06.06.13.12.21.16.07.03.16.06.26.07h.34s.1,2.22.1,2.22h-.16s-.04.03-.06.04c-.01,0-.03.01-.03.03-.01.01-.03.03-.03.04-.01.01-.01.04-.01.06-.01.01-.01.04-.01.07-.01.25-.01,1.16-.01,1.16h0v.06s.01.04.03.06c0,.01,0,.03.01.03,0,.01.01.03.03.03.01.01.03.01.04.03h.28l.09,2.05s0,.07.01.1c0,.03.01.06.03.07,0,.03.01.04.03.06.01.03.03.04.04.04.03.03.06.04.09.04.01.01.03.01.04.01,0,.14-.02.59-.03.88,0,.07-.01.15-.04.21-.04.06-.07.12-.12.16-.06.04-.1.07-.16.12-.06.03-.12.06-.18.07h-.03s-.01.01-.03.01h-.1c-.07.01-.18.01-.28.01h0c0-.2.02-.42.02-.42v-.07h-.02s-.01-.62-.01-.62h0v-.03h-.01v-.06s-.01-.03-.01-.04c-.03-.07-.06-.18-.12-.28-.04-.1-.12-.21-.21-.3-.04-.04-.09-.07-.15-.09-.04-.03-.12-.04-.18-.04h-6.18v-.82c.67-.01,1.3-.04,1.86-.07.5-.03.94-.07,1.29-.12.19-.01.34-.04.48-.07.06,0,.13-.01.19-.03.04-.01.1-.03.15-.04.32-.1.63-.22.91-.37.29-.16.56-.34.79-.55.22-.21.41-.46.54-.74.06-.15.12-.3.15-.46.04-.16.06-.34.06-.52,0-.09,0-.18-.01-.27-.44-4.63-.89-9.03-1.92-13.6h0s-.01-.01-.01-.03h0s-.01-.06-.03-.07c0-.03-.01-.04-.03-.07-.04-.1-.12-.25-.23-.42-.1-.15-.25-.3-.42-.43-.1-.06-.19-.12-.31-.16-.12-.04-.23-.09-.38-.1-1.54-.18-2.89-.25-4.22-.25-1.52,0-3.03.1-4.79.25-.21.01-.4.07-.59.15-.18.09-.34.21-.48.34-.15.13-.28.3-.38.46-.1.16-.18.36-.22.53-1.07,4.44-1.8,8.89-1.86,13.42v.07c0,.43.03.79.1,1.08.04.16.09.3.16.43.06.12.13.24.22.36.1.1.21.21.34.3.12.09.26.18.41.25.32.15.72.28,1.19.4.12.03.26.06.42.09s.34.04.53.07c.38.04.84.07,1.32.1.44.03.91.05,1.39.06v.83h-5.72c-.09,0-.23,0-.38.04-.07.03-.15.06-.21.1-.03.03-.04.06-.07.09s-.04.06-.06.1c-.06.18-.1.46-.12.73,0,.12-.01.24-.01.33v.15h0v.06h0s.03.37.03.37h-.18c-.1,0-.19,0-.28-.01-.03,0-.07,0-.09-.01h-.04s-.01-.01-.03-.01c-.06-.01-.12-.04-.18-.07-.04-.03-.1-.07-.15-.12-.04-.04-.09-.1-.12-.16-.03-.06-.04-.13-.04-.21-.01-.29-.02-.74-.03-.87,0,0,.01,0,.01,0,.03,0,.07-.01.1-.04.01,0,.03-.01.04-.04.01-.01.03-.03.04-.06s.03-.04.03-.09c.01-.03.01-.06.01-.1l.09-2.06h.28s.03-.01.04-.03c.01,0,.01-.01.03-.01.01-.01.01-.03.01-.03.01-.01.03-.04.03-.06v-.03h0v-.03s0-.9-.01-1.14c0-.03,0-.06-.01-.07,0-.01,0-.04-.01-.06,0-.01-.01-.03-.03-.04,0-.01-.01-.03-.03-.03-.01-.01-.04-.03-.06-.04h-.17l.1-2.24h.34c.12-.02.21-.03.29-.08.07-.03.15-.07.21-.12.06-.04.09-.1.12-.16.01-.03.03-.06.03-.09.01-.04.01-.07.01-.1s0-.06-.01-.09c0-.04-.01-.07-.03-.1s-.03-.06-.04-.07c-.03-.03-.06-.06-.07-.09-.06-.04-.13-.07-.21-.1-.09-.03-.18-.04-.28-.04-.04,0-.1,0-.16.01-.32.06-.63.09-.94.09-.28,0-.57-.03-.88-.09-.06-.01-.12-.01-.18-.01-.09,0-.16.01-.23.04-.07.01-.13.06-.18.1-.06.04-.09.1-.12.16-.03.06-.04.12-.04.18s.01.13.04.19c.03.06.06.12.12.16.04.06.12.1.19.13.07.04.16.07.28.09h.34c.04.76.11,1.56.18,2.36,0,0-.01,0-.02,0-.01,0-.04.01-.06.01-.03,0-.04.01-.06.03-.01,0-.03.01-.03.01-.01.01-.01.03-.03.04,0,.01,0,.03-.01.04v.9h0v.03s.01.06.01.09c.01.01.01.03.03.04t.03.03s.03.03.06.03c.01.01.03.01.06.01h.13s0,0,0,0c.06.58.1,1.15.16,1.72,0,.07.01.13.01.18,0,.06,0,.1.01.15v.12s.01.07.01.09h0s.01.09.01.12c.01.04.03.07.04.1,0,.01.01.03.03.04,0,.01.01.03.03.04.03,0,.04.01.06.01.01,0,.02,0,.03,0l.03.87c0,.1.01.21.04.3.01.04.03.09.06.13.01.04.04.09.09.12.03.04.07.07.12.1.06.03.1.04.16.07.07.01.13.03.21.04.07.01.16.01.25.01h.4v.12s0,0,0,.01h0s.01.03.01.04,0,.03.01.06c0,.01.01.04.03.07.03.04.07.1.13.15.06.06.13.1.23.15h.03s.01.01.03.01.04.01.07.01.06.01.1.01c.03.01.07.01.13.03.09.01.19.03.31.06.13.01.26.03.41.06.57.09,1.35.19,2.17.28.14.02.27.03.41.05,0,0,0,0-.02,0h-.03c-.13.04-2.05.82-2.05.82h-.01s-.01.01-.01.01h-.03s-.04.01-.07.03c-.01,0-.06.01-.09.01-.13.04-.29.07-.47.09-.35.01-.62,0-.91.09-.03.01-.06.01-.1.03-.03,0-.04.01-.07.01-.03.01-.04.01-.06.03-.03,0-.04.01-.06.01-.06.03-.1.04-.15.07h-.01s-.04.04-.07.06c-.01.03-.03.04-.04.07-.03.03-.03.07-.04.1s-.01.04-.01.07-.01.06-.01.09h0v.07s.01.06.01.07l.04.09s.03.03.04.03c.01.01.03.01.04.03l.5.2h0s.01,0,.01,0h.01s.01.01.03.03c.01,0,.04.01.07.01.03.01.06.01.09.01.06,0,.1,0,.16-.03.06-.01.13-.04.21-.07.04-.03.07-.06.1-.07.04-.03.07-.04.09-.07.06-.04.09-.07.13-.1.03-.03.06-.06.12-.09.03-.03.06-.04.09-.06.04-.01.09-.03.13-.04.06-.03.09-.04.13-.04.01-.01.03-.01.04-.03h.04s.04-.01.06-.01c.01-.01.03-.01.04-.01s.03,0,.04-.01c.01,0,.04,0,.06-.01.01,0,.03,0,.04-.01.01,0,.03,0,.04-.01.01,0,.03-.01.06-.01.01-.01.04-.03.06-.03.4-.16,1.88-.67,1.88-.67h.01s0-.01.01-.01h.01s.06-.03.09-.06c.03-.01.06-.04.09-.09.01-.01.03-.03.03-.06.01-.03.01-.04.01-.07h0s.32-.14.32-.14c-.31.27-.93.81-1.12.99-.13.1-.23.18-.37.24-.07.03-.15.06-.25.09-.09.03-.21.06-.34.09-.13.03-.26.06-.37.09-.1.03-.19.06-.26.07-.07.03-.15.06-.21.07-.06.03-.1.06-.15.07-.07.04-.13.07-.18.1-.06.03-.09.07-.12.1-.03.04-.06.09-.07.13-.01.04-.01.09-.01.13,0,.09.01.18.03.27h0s0,.03.01.03t.01.01s.01.01.01.01h.07s.03-.01.03-.03c.01,0,.03-.01.03-.01,0,0,0,0,0,0h0s0,0,0,0h.01s.01-.01.03-.01c0-.01.01-.01.03-.03.03-.01.06-.03.1-.04.03-.03.07-.04.12-.07.16-.09.38-.19.56-.27.1-.04.18-.07.25-.09.06-.03.12-.04.18-.04.06-.01.12-.03.19-.03.06-.01.12-.03.21-.04.16-.04.35-.15.5-.24.07-.04.15-.09.19-.12t.03-.01s.01-.01.01-.03h.03s.67-.67.73-.73c.01,0,.01-.01.03-.01,0-.01.01-.01.01-.01,0-.01.01-.01.01-.01.01.01.03.03.04.03s.01,0,.03.01h.06s.44-.49.54-.59c.01-.01.03-.01.03-.03.01-.01.01-.03.01-.03.01-.01.01-.03.01-.03.01-.01.01-.03.01-.04s-.01-.03-.01-.04c0,0,0,0,0,0l.08-.08c.32.03.64.06.95.08v.31s.01.04.01.07c.01.06.04.12.07.16.03.03.04.06.07.09.03.01.07.04.12.06.03.01.07.03.13.04.06.01.12.01.18.01h.23v3.1h-.34v4.14c-3.61.08-7.18.53-10.24,1.33,0,0-.01,0-.01.01h-.04s-.06.01-.09.03c-.07.03-.15.07-.23.13-.03.04-.07.07-.1.13-.04.04-.07.09-.1.16-.03.06-.04.13-.06.21-.01.07-.03.16-.03.27v1.04h.04v.15c-.13,0-.26.03-.4.08-.13.04-.25.13-.35.22-.1.1-.19.24-.25.37-.06.13-.09.3-.09.46v.06s0,.03.01.04c0,.01,0,.03.01.04.01,0,.01.01.03.01t.03.01h.06s.01-.03.01-.03c.01-.01.02-.02.03-.03,0,.05,0,.09.02.15.03.07.06.15.09.21h0c.06.09.1.15.16.21.04.06.12.1.18.15h0s.01.01.01.01c.07.03.15.06.22.09.09.01.16.03.25.03s.16-.01.25-.03c.07-.03.15-.06.21-.09h.01c.07-.06.13-.1.19-.16.06-.06.1-.12.16-.19h0c.03-.07.06-.15.09-.22.01-.06.02-.12.02-.18h0s0,0,0,.01c0,.01,0,.03.01.04,0,.01.01.03.01.04.01.01.03.01.04.03h.07s.01-.01.01-.01c.01,0,.01-.01.01-.01.01-.01.01-.03.03-.04v-.1c0-.05,0-.1-.01-.15.12-.19.17-.38.2-.58.04-.19.04-.39.04-.56v-.03h.03s.01-.01.03-.01c.01-.01.03-.01.04-.01.03-.01.04-.03.07-.03.06-.01.12-.04.19-.07.07-.01.16-.04.26-.09.19-.06.42-.13.69-.22.28-.07.59-.16.92-.25.34-.09.74-.17,1.17-.24v.89h.5v.03h-.48v.15c-.13,0-.26.03-.4.08-.13.04-.25.13-.35.22-.1.1-.19.24-.25.37-.06.13-.09.3-.09.46v.06s0,.03.01.04c0,.01,0,.03.01.04.01,0,.01.01.03.01t.03.01h.06s.01-.03.01-.03c.01-.01.02-.02.03-.03,0,.05,0,.09.02.15.03.07.06.15.09.21h0c.06.09.1.15.16.21.04.06.12.1.18.15h0s.01.01.01.01c.07.03.15.06.22.09.09.01.16.03.25.03s.16-.01.25-.03c.07-.03.15-.06.21-.09h.01c.07-.06.13-.1.19-.16.06-.06.1-.12.16-.19h0c.03-.07.06-.15.09-.22.01-.06.02-.12.02-.18h0s0,0,0,.01c0,.01,0,.03.01.04,0,.01.01.03.01.04.01.01.03.01.04.03h.07s.01-.01.01-.01c.01,0,.01-.01.01-.01.01-.01.01-.03.03-.04v-.1c0-.05,0-.1-.01-.15.12-.19.17-.38.2-.58.04-.19.04-.39.04-.56v-.04h-.44v-.03h.45s.01-.01.03-.01.03-.01.04-.01c.03,0,.04-.01.07-.03.06-.01.12-.03.19-.06.09-.01.18-.04.28-.07.19-.06.44-.13.72-.21.28-.09.59-.18.94-.27.86-.26,1.72-.41,2.58-.48,0,.22.03.42.06.61.03.19.07.37.12.52v.03h.6s-.41.01-.41.01h-.04v.04c0,.18,0,.37.03.56.03.19.09.39.21.58h.02c0,.05-.02.11-.02.18v.07s.01.03.03.04c0,0,0,.01.01.01,0,0,.01,0,.01.01h.07s.03-.01.04-.03c0-.01.01-.03.01-.04.01-.01.01-.03.01-.04,0,0,0,0,0-.01h0c0,.06.01.12.02.18.03.07.06.15.09.21h0c.06.09.1.15.16.21.06.06.12.1.19.16h.01c.06.03.13.06.21.09.09.01.16.03.25.03s.16-.01.25-.03c.07-.03.15-.06.22-.09h.01c.06-.06.13-.1.18-.16.06-.06.1-.12.16-.19h0l.09-.22c0-.05.01-.1.02-.15.01.01.01.01.03.03,0,0,0,.01.01.01h.01s.01.01.03.01h.01s.01,0,.03-.01c.01,0,.01-.01.03-.01.01-.01.01-.03.01-.04.01-.01.01-.03.01-.04v-.06c0-.16-.03-.33-.09-.46-.06-.13-.15-.27-.25-.37-.1-.09-.22-.18-.35-.22-.13-.05-.26-.08-.4-.08v-.15h-.47s.59-.01.59-.01h.03v-.03c.13-.35.17-.75.19-1.12.84.07,1.68.22,2.53.47.34.09.66.19.94.27.28.09.51.15.72.22.1.03.19.06.26.07.09.03.15.04.21.06.03.01.04.01.07.03.01,0,.03.01.04.01h.01s.01.01.01.01h.44s-.4.01-.4.01h-.04v.04c0,.18,0,.37.03.56.03.19.09.39.21.58h.02c0,.05-.02.11-.02.18v.07s.01.03.03.04c0,0,0,.01.01.01,0,0,.01,0,.01.01h.07s.03-.01.04-.03c0-.01.01-.03.01-.04.01-.01.01-.02.01-.03,0,.05,0,.1.02.15.03.07.06.15.09.21h0c.06.09.1.15.16.21.06.06.12.1.19.16h.01c.06.03.13.06.21.09.09.01.16.03.25.03s.16-.01.25-.03c.07-.03.15-.06.22-.09h.01c.06-.06.13-.1.18-.16.06-.06.1-.12.16-.19h0c.03-.07.06-.15.09-.22.01-.08.02-.15.03-.23,0,.01,0,.02,0,.03v.04s.01.01.03.03c0,0,0,.01.01.01h.01s.01.01.03.01h.01s.01,0,.03-.01c.01,0,.01-.01.03-.01.01-.01.01-.03.01-.04.01-.01.01-.03.01-.04v-.06c0-.16-.03-.33-.09-.46-.06-.13-.15-.27-.25-.37-.1-.09-.22-.18-.35-.22-.13-.05-.26-.08-.4-.08v-.15h-.48s.47-.01.47-.01h.04v-.89c.39.07.75.14,1.06.22.34.09.64.18.92.25.28.07.53.15.72.21.1.03.19.06.26.07.09.03.15.04.21.06.03.01.04.01.07.03.01,0,.03.01.04.01h.01s.01.01.01.01h.42v.03h-.45v.04c0,.18,0,.37.03.56.03.19.09.39.21.58h.02c0,.05-.02.11-.02.18v.07s.01.03.03.04c0,0,0,.01.01.01,0,0,.01,0,.01.01h.07s.03-.01.04-.03c0-.01.01-.03.01-.04.01-.01.01-.03.01-.04,0,0,0,0,0-.01h0c0,.06.01.12.02.18.03.07.06.15.09.21h0c.06.09.1.15.16.21.06.06.12.1.19.16h.01c.06.03.13.06.21.09.09.01.16.03.25.03s.16-.01.25-.03c.07-.03.15-.06.22-.09h.01c.06-.06.13-.1.18-.16.06-.06.1-.12.16-.19h0l.09-.22c0-.05.01-.1.02-.15.01.01.01.01.03.03,0,0,0,.01.01.01h.01s.01.01.03.01h.01s.01,0,.03-.01c.01,0,.01-.01.03-.01.01-.01.01-.03.01-.04.01-.01.01-.03.01-.04v-.06c0-.16-.03-.33-.09-.46Z"></path></g></svg>